<?xml version="1.0" standalone="no"?>
<!DOCTYPE svg PUBLIC "-//W3C//DTD SVG 20010904//EN"
 "http://www.w3.org/TR/2001/REC-SVG-20010904/DTD/svg10.dtd">
<svg version="1.0" xmlns="http://www.w3.org/2000/svg"
 width="500.000000pt" height="250.000000pt" viewBox="0 0 500.000000 250.000000"
 preserveAspectRatio="xMidYMid meet">

<g transform="translate(0.000000,250.000000) scale(0.100000,-0.100000)"
fill="#fafafa" stroke="none">
<path d="M840 2325 c-355 -76 -627 -334 -721 -685 -32 -119 -32 -337 0 -455
26 -98 87 -228 146 -310 63 -89 414 -445 509 -517 101 -76 234 -141 352 -170
126 -31 314 -31 438 0 108 27 235 86 324 148 36 27 379 360 774 752 l708 705
2 -517 3 -518 110 0 110 0 5 140 5 139 145 159 c80 87 221 242 314 344 93 102
185 202 205 223 l35 37 -141 0 -140 0 -209 -226 -209 -225 -3 225 -2 226 -105
0 c-58 0 -105 3 -105 8 0 13 123 90 201 126 131 61 225 80 379 80 180 -1 279
-24 436 -101 48 -23 55 -31 88 -103 140 -298 116 -639 -64 -909 -66 -97 -106
-139 -119 -125 -5 5 -90 113 -189 241 l-179 232 -49 -57 c-27 -31 -59 -68 -71
-83 l-23 -26 123 -163 122 -162 128 0 c70 1 127 -3 127 -8 0 -30 -193 -158
-298 -198 -127 -49 -213 -65 -352 -64 -194 0 -356 50 -515 156 -69 46 -67 44
85 -109 221 -223 355 -306 565 -353 96 -21 299 -21 391 0 311 71 568 295 675
589 74 203 76 418 6 624 -59 173 -121 255 -389 521 -229 227 -298 282 -422
340 -118 54 -207 75 -344 81 -224 10 -391 -36 -577 -160 -37 -24 -334 -313
-777 -756 l-718 -716 -2 545 -3 545 -110 0 -110 0 -3 -212 -2 -213 -225 0
-225 0 -2 213 -3 212 -100 5 -100 5 50 36 c243 177 554 226 840 132 98 -32
152 -58 241 -118 l69 -47 -130 132 c-166 168 -267 249 -380 305 -140 69 -215
87 -385 91 -99 2 -166 -1 -210 -11z m-111 -1618 c10 -10 195 -12 211 -2 6 4
10 88 10 236 l0 229 225 0 225 0 0 -229 c0 -151 4 -232 11 -236 5 -4 50 -7
100 -7 49 0 89 -3 89 -8 0 -27 -226 -144 -338 -174 -196 -53 -449 -30 -637 59
-82 39 -96 56 -143 176 -44 109 -62 211 -62 343 0 247 71 430 244 630 l51 58
3 -533 c1 -293 6 -537 11 -542z"/>
<path d="M2030 2037 c-25 -12 -25 -15 -28 -145 l-3 -132 -123 7 c-121 6 -123
6 -139 -18 -22 -30 -21 -61 1 -88 16 -19 31 -21 205 -27 l187 -7 0 195 c0 145
-3 198 -13 206 -22 18 -61 23 -87 9z"/>
<path d="M3021 870 c-90 -16 -164 -30 -165 -32 -2 -2 14 -86 33 -188 34 -173
38 -185 63 -199 24 -14 30 -14 62 2 44 20 45 34 15 177 -12 55 -20 102 -18
104 2 2 56 12 119 21 122 17 140 27 140 75 0 39 -26 70 -58 69 -15 -1 -101
-14 -191 -29z"/>
</g>
</svg>
